<svg enable-background="new 0 0 256 256" height="512" viewBox="0 0 256 256" width="512" xmlns="http://www.w3.org/2000/svg"><circle cx="128" cy="128" fill="#ff4a73" r="117.979"/><path d="m145.917 58.167h-35.833v-17.917c0-9.895 8.022-17.917 17.917-17.917 9.895 0 17.917 8.022 17.917 17.917v17.917z" fill="#f9d335"/><path d="m135.5 23.98c-6.15 2.83-10.42 9.05-10.42 16.27v17.92h-15v-17.92c0-9.9 8.02-17.92 17.92-17.92 2.68 0 5.22.59 7.5 1.65z" fill="#f9e27d"/><path d="m190.388 171.325c-5.346-4.745-8.406-11.551-8.406-18.699v-53.171c0-26.03-20.71-45.97-45.32-47.45-4.739-.256-14.524-.151-17.32 0-24.61 1.48-45.32 21.42-45.32 47.45v53.171c0 7.148-3.06 13.954-8.406 18.699l-11.864 10.529c-3.431 3.045-1.295 8.715 3.292 8.74 46.016.256 92.349.272 141.908-.001 4.586-.025 6.73-5.696 3.3-8.74z" fill="#f9d335"/><path d="m119.34 52c-24.61 1.48-45.32 21.42-45.32 47.45v53.18c0 7.14-3.06 13.95-8.4 18.69l-11.87 10.53c-3.43 3.05-1.29 8.72 3.29 8.74l14.995.079c-4.58-.02-6.715-5.768-3.285-8.818l11.87-10.53c5.34-4.74 8.4-11.55 8.4-18.69v-53.181c0-26.03 20.71-45.97 45.32-47.45.32-.02.74-.03 1.23-.05-5.01-.19-13.63-.09-16.23.05z" fill="#f9e27d"/><path d="m202.25 181.85-11.86-10.53c-5.35-4.74-8.41-11.55-8.41-18.69v-53.18c0-26.03-20.71-45.97-45.32-47.45-4.19-.22-12.34-.17-16.09-.05.39.02.75.03 1.09.05 24.61 1.48 45.32 21.42 45.32 47.45v53.18c0 7.14 3.06 13.95 8.41 18.69l11.86 10.53c3.43 3.05 1.261 8.797-3.329 8.817l15.029-.077c4.59-.02 6.73-5.69 3.3-8.74z" fill="#f2c300"/><path d="m135.5 245.74c-2.48.16-4.98.24-7.5.24-65.16 0-117.98-52.82-117.98-117.98s52.82-117.98 117.98-117.98c2.52 0 5.02.08 7.5.24-61.67 3.86-110.48 55.1-110.48 117.74s48.81 113.88 110.48 117.74z" fill="#f973a3"/><path d="m245.98 128c0 65.16-52.82 117.98-117.98 117.98-2.52 0-5.02-.08-7.5-.24 61.67-3.86 110.48-55.1 110.48-117.74s-48.81-113.88-110.48-117.74c2.48-.16 4.98-.24 7.5-.24 65.16 0 117.98 52.82 117.98 117.98z" fill="#ea2a6a"/><path d="m129.251 222h-2.501c-17.26 0-31.251-13.992-31.251-31.251h65.004c-.001 17.259-13.993 31.251-31.252 31.251z" fill="#f9d335"/><path d="m135.5 221.37c-2.02.41-4.11.63-6.25.63h-2.5c-17.26 0-31.25-13.99-31.25-31.25h15c0 15.12 10.74 27.73 25 30.62z" fill="#f9e27d"/><g fill="#5f266d"><path d="m128 6.021c-67.26 0-121.979 54.719-121.979 121.979s54.719 121.979 121.979 121.979 121.979-54.719 121.979-121.979-54.719-121.979-121.979-121.979zm0 235.958c-62.849 0-113.979-51.131-113.979-113.979s51.13-113.979 113.979-113.979 113.979 51.13 113.979 113.979-51.13 113.979-113.979 113.979z"/><path d="m193.043 168.332c-4.487-3.981-7.061-9.706-7.061-15.706v-53.171c0-22.716-15.05-42.214-36.062-48.987 0-10.49 1.122-18.195-6.421-25.717-4.141-4.142-9.645-6.422-15.499-6.422-12.087 0-21.92 9.833-21.92 21.92v10.216c-21.003 6.769-36.058 26.27-36.058 48.99v53.171c0 5.999-2.574 11.725-7.062 15.706l-11.864 10.53c-6.17 5.475-2.319 15.687 5.925 15.731 11.617.065 23.173.113 34.709.146 1.989 17.565 16.932 31.261 35.02 31.261h2.501c18.088 0 33.031-13.697 35.019-31.263 11.497-.033 23.05-.081 34.703-.145 3.764-.021 7.053-2.311 8.379-5.834 1.325-3.519.365-7.403-2.446-9.898zm-78.963-128.082c0-12.387 15.044-18.561 23.766-9.837 4.966 4.95 4.074 10.108 4.074 18.143-6.983-1.093-22.349-.859-27.84-.001zm-14.288 154.507c19.958.044 35.331.046 56.415-.001-4.591 31.043-51.827 31.006-56.415.001zm99.137-8.164c-42.992.238-101.915.224-141.864.001-.932-.006-1.356-1.13-.659-1.748l11.864-10.529c6.197-5.5 9.751-13.405 9.751-21.69v-53.172c0-23.046 18.349-42.063 41.536-43.456 18.491-1 24.217 1.118 25.568 1.391 18.989 4.984 32.856 22.049 32.856 42.065v53.171c0 8.285 3.554 16.191 9.751 21.69l11.864 10.528c.694.617.265 1.743-.667 1.749z"/><path d="m223.554 131.125c-2.2-.143-4.121 1.492-4.284 3.694-.185 2.504-.504 5.016-.949 7.467-.394 2.174 1.048 4.256 3.222 4.649.242.044.481.065.718.065 1.897 0 3.581-1.354 3.932-3.287.494-2.728.85-5.521 1.055-8.305.163-2.202-1.491-4.12-3.694-4.283z"/><path d="m223.39 124.115c2.195-.25 3.772-2.231 3.523-4.427-3.581-31.493-23.033-54.796-23.859-55.772-1.427-1.686-3.951-1.896-5.638-.47-1.686 1.427-1.896 3.951-.47 5.638.187.221 18.708 22.4 22.017 51.509.252 2.207 2.249 3.772 4.427 3.522z"/></g></svg>